<?xml version="1.0" standalone="no"?>
<!DOCTYPE svg PUBLIC "-//W3C//DTD SVG 20010904//EN"
 "http://www.w3.org/TR/2001/REC-SVG-20010904/DTD/svg10.dtd">
<svg version="1.0" xmlns="http://www.w3.org/2000/svg"
 width="1024.000000pt" height="1024.000000pt" viewBox="0 0 1024.000000 1024.000000"
 preserveAspectRatio="xMidYMid meet">

<g transform="translate(0.000000,1024.000000) scale(0.100000,-0.100000)"
fill="#000000" stroke="none">
<path d="M6195 6196 c-64 -28 -91 -96 -61 -154 43 -84 161 -81 201 5 16 33 16
41 4 77 -23 64 -87 96 -144 72z"/>
<path d="M6584 6199 c-70 -19 -104 -104 -65 -167 51 -80 175 -64 202 27 26 86
-49 163 -137 140z"/>
<path d="M5781 6174 c-78 -65 -31 -194 71 -194 79 0 133 92 97 163 -32 62
-114 77 -168 31z"/>
<path d="M6840 3085 l0 -485 75 0 76 0 -3 340 c-2 186 0 336 4 332 11 -12 122
-278 199 -480 l74 -192 58 2 59 3 82 210 c103 265 189 465 199 465 4 0 7 -153
7 -340 l0 -340 73 0 72 0 -3 482 -2 483 -93 0 -92 0 -51 -130 c-28 -71 -93
-239 -145 -372 -51 -134 -97 -243 -100 -243 -9 0 -49 96 -189 458 l-114 292
-93 0 -93 0 0 -485z"/>
<path d="M6390 3385 l0 -85 -55 0 -55 0 0 -65 0 -65 54 0 54 0 4 -227 c3 -207
5 -231 23 -263 33 -56 92 -80 197 -80 l88 0 0 60 0 60 -50 0 c-41 0 -56 5 -75
25 -25 24 -25 25 -25 225 l0 200 75 0 75 0 0 65 0 65 -75 0 -75 0 0 85 0 85
-80 0 -80 0 0 -85z"/>
<path d="M4443 3303 c15 -2 39 -2 55 0 15 2 2 4 -28 4 -30 0 -43 -2 -27 -4z"/>
<path d="M5038 3291 c-79 -32 -124 -75 -165 -159 -37 -74 -38 -79 -38 -186 0
-101 3 -117 28 -172 71 -153 237 -227 401 -180 63 19 109 44 101 56 -2 4 10
20 28 36 l32 29 -29 -32 c-17 -18 -25 -33 -20 -33 21 0 94 99 94 128 0 8 -20
12 -66 12 -62 0 -69 -2 -105 -34 -42 -38 -87 -51 -155 -43 -77 8 -136 72 -151
163 l-6 34 248 0 248 0 -5 84 c-3 67 -10 95 -34 142 -16 33 -33 58 -39 57 -14
-2 -55 37 -52 50 1 6 -18 22 -43 36 -61 35 -201 41 -272 12z m202 0 c15 -4 -8
-7 -55 -6 -95 0 -159 -11 -149 -27 4 -7 2 -8 -5 -4 -18 11 -66 -23 -52 -37 6
-6 11 -15 11 -21 0 -5 -7 -1 -15 10 -14 19 -15 18 -34 -5 -10 -14 -18 -35 -16
-48 1 -13 -2 -23 -6 -23 -5 0 -9 6 -9 13 -1 6 -7 1 -15 -13 -17 -30 -19 -44
-4 -34 7 4 10 1 7 -7 -3 -8 1 -22 9 -31 15 -17 9 -43 -8 -33 -11 7 -12 -17 -1
-31 4 -5 -3 2 -15 16 l-23 25 0 -90 c0 -50 4 -106 10 -124 5 -19 8 -37 5 -39
-11 -11 -27 93 -26 170 1 179 78 296 219 334 51 14 132 16 172 5z m60 -21 c8
-5 11 -10 5 -10 -5 0 -17 5 -25 10 -8 5 -10 10 -5 10 6 0 17 -5 25 -10z m-179
-72 c-52 -15 -89 -48 -117 -104 -43 -88 -42 -88 131 -94 l150 -6 -146 -2
c-164 -2 -176 2 -164 59 7 29 5 31 -13 27 -22 -6 -37 15 -25 34 3 7 1 8 -6 4
-6 -4 -10 -15 -9 -23 2 -9 -1 -18 -7 -19 -5 -2 -11 9 -12 24 -1 22 2 28 20 28
26 0 41 -17 24 -29 -8 -6 -7 -7 4 -4 9 3 21 1 26 -4 7 -7 14 0 22 19 21 50 92
103 136 101 12 0 7 -5 -14 -11z m142 -13 c20 -14 37 -28 37 -31 0 -3 -14 4
-30 16 -17 12 -43 26 -58 30 -21 6 -22 8 -7 9 11 1 37 -10 58 -24z m-303 5
c-12 -8 -12 -10 5 -11 l20 0 -20 -8 c-11 -5 -24 -6 -28 -4 -10 6 12 33 27 33
6 0 4 -5 -4 -10z m298 -26 c29 -22 72 -97 72 -126 0 -17 -13 -18 -169 -18
l-170 0 8 28 c20 67 58 113 111 135 30 13 121 1 148 -19z m167 -15 c9 -17 15
-33 13 -35 -3 -2 -12 12 -21 31 -21 43 -13 47 8 4z m-85 -63 c0 -12 -5 -7 -19
24 -11 24 -11 24 3 6 9 -11 16 -24 16 -30z m-350 24 c0 -5 -4 -10 -10 -10 -5
0 -10 5 -10 10 0 6 5 10 10 10 6 0 10 -4 10 -10z m467 -62 c-3 -8 -6 -5 -6 6
-1 11 2 17 5 13 3 -3 4 -12 1 -19z m-567 -88 c0 -11 -4 -20 -10 -20 -5 0 -10
9 -10 20 0 11 5 20 10 20 6 0 10 -9 10 -20z m577 -22 c-3 -7 -5 -2 -5 12 0 14
2 19 5 13 2 -7 2 -19 0 -25z m-279 -5 c-38 -2 -98 -2 -135 0 -38 2 -7 3 67 3
74 0 105 -1 68 -3z m145 0 c-13 -2 -35 -2 -50 0 -16 2 -5 4 22 4 28 0 40 -2
28 -4z m-356 -70 c-3 -10 -5 -2 -5 17 0 19 2 27 5 18 2 -10 2 -26 0 -35z m80
-131 c21 -18 23 -21 6 -13 -23 12 -73 71 -73 87 0 5 9 -4 20 -21 11 -16 32
-41 47 -53z m-97 -60 c14 -10 39 -26 55 -35 17 -9 25 -16 19 -17 -35 -1 -154
112 -154 147 0 5 13 -11 28 -34 15 -23 39 -50 52 -61z m380 95 c0 -2 -12 -14
-27 -28 l-28 -24 24 28 c23 25 31 32 31 24z m-65 -57 c-3 -5 -12 -10 -18 -10
-7 0 -6 4 3 10 19 12 23 12 15 0z m-138 -16 c-3 -3 -12 -4 -19 -1 -8 3 -5 6 6
6 11 1 17 -2 13 -5z m100 0 c-3 -3 -12 -4 -19 -1 -8 3 -5 6 6 6 11 1 17 -2 13
-5z"/>
<path d="M4870 3065 c0 -9 7 -18 15 -22 23 -8 24 0 3 20 -15 14 -18 15 -18 2z"/>
<path d="M5810 3301 c-161 -49 -253 -205 -236 -400 11 -135 81 -243 191 -293
69 -32 208 -32 276 -1 87 39 151 115 173 206 l6 27 -70 0 c-66 0 -70 -1 -84
-27 -72 -139 -257 -130 -313 15 -27 70 -24 193 6 255 33 69 71 92 151 92 78 0
118 -24 147 -85 l18 -39 73 -1 72 0 -6 28 c-12 55 -56 132 -92 162 -56 46
-130 70 -215 69 -40 0 -83 -4 -97 -8z"/>
<path d="M8139 3296 c-124 -44 -199 -151 -215 -308 -12 -119 21 -230 92 -308
135 -149 427 -126 523 42 17 29 31 56 31 61 0 4 -34 7 -75 7 -64 0 -76 -3 -85
-20 -15 -28 -82 -60 -127 -60 -108 0 -172 54 -193 163 l-7 37 250 0 250 0 -5
78 c-8 144 -91 267 -205 306 -56 19 -183 20 -234 2z m184 -117 c53 -27 97 -91
97 -140 0 -18 -10 -19 -165 -19 -107 0 -165 4 -165 10 0 21 31 85 53 109 43
46 130 66 180 40z"/>
<path d="M4360 3290 c-8 -5 -10 -10 -5 -10 6 0 17 5 25 10 8 5 11 10 5 10 -5
0 -17 -5 -25 -10z"/>
<path d="M4575 3281 c49 -23 88 -63 112 -116 15 -34 18 -76 21 -297 l3 -258
-65 0 -66 0 -2 203 -3 202 -5 -208 -5 -207 78 0 78 0 -3 263 -3 262 -29 58
c-21 44 -40 66 -74 88 -25 16 -53 29 -61 29 -9 0 2 -9 24 -19z"/>
<path d="M4284 3238 l-19 -23 23 19 c12 11 22 21 22 23 0 8 -8 2 -26 -19z"/>
<path d="M5375 3220 c10 -11 20 -18 23 -15 7 6 -18 35 -31 35 -5 0 -2 -9 8
-20z"/>
<path d="M4398 3183 c12 -2 32 -2 45 0 12 2 2 4 -23 4 -25 0 -35 -2 -22 -4z"/>
<path d="M4470 3176 c0 -2 7 -7 16 -10 8 -3 12 -2 9 4 -6 10 -25 14 -25 6z"/>
<path d="M4299 3143 l-24 -28 28 24 c25 23 32 31 24 31 -2 0 -14 -12 -28 -27z"/>
<path d="M4510 3156 c0 -2 8 -10 18 -17 15 -13 16 -12 3 4 -13 16 -21 21 -21
13z"/>
<path d="M4544 3113 c4 -7 11 -32 16 -55 l9 -43 -3 44 c-3 24 -10 49 -17 55
-9 8 -10 8 -5 -1z"/>
<path d="M4102 2828 l-2 -228 78 2 77 2 -72 3 -73 4 -3 222 -2 222 -3 -227z"/>
<path d="M4243 2675 c0 -33 2 -45 4 -27 2 18 2 45 0 60 -2 15 -4 0 -4 -33z"/>
<path d="M3933 2603 c9 -2 25 -2 35 0 9 3 1 5 -18 5 -19 0 -27 -2 -17 -5z"/>
</g>
</svg>
